<svg width="20" height="20" viewBox="0 0 20 20" fill="none" xmlns="http://www.w3.org/2000/svg">
<path d="M15.2015 7.59714C14.5191 7.59714 13.9265 7.3861 13.4238 6.964C12.921 6.54203 12.6027 6.01067 12.469 5.3699H7.512C7.40165 5.91302 7.15283 6.37943 6.76552 6.76914C6.37822 7.15898 5.91302 7.40908 5.3699 7.51943V12.469C6.01067 12.6027 6.54203 12.921 6.964 13.4238C7.3861 13.9265 7.59714 14.5191 7.59714 15.2015C7.59714 15.9761 7.32432 16.6362 6.77867 17.1817C6.23314 17.7272 5.57308 18 4.79848 18C4.02387 18 3.36381 17.7272 2.81829 17.1817C2.27276 16.6362 2 15.9761 2 15.2015C2 14.5191 2.21098 13.9265 2.63295 13.4238C3.05492 12.921 3.58629 12.6027 4.22705 12.469V7.51943C3.58629 7.38559 3.05492 7.06787 2.63295 6.56629C2.21098 6.0647 2 5.47543 2 4.79848C2 4.02387 2.27333 3.36381 2.82 2.81829C3.36654 2.27276 4.02362 2 4.79124 2C5.46819 2 6.05746 2.21098 6.55905 2.63295C7.06064 3.05492 7.37829 3.58629 7.512 4.22705H12.469C12.6027 3.58629 12.921 3.05492 13.4238 2.63295C13.9265 2.21098 14.5191 2 15.2015 2C15.971 2 16.6298 2.27403 17.1779 2.82209C17.726 3.37016 18 4.02895 18 4.79848C18 5.57308 17.726 6.23314 17.1779 6.77867C16.6298 7.32432 15.971 7.59714 15.2015 7.59714ZM4.7939 16.8644C5.25511 16.8644 5.64711 16.6998 5.96991 16.3707C6.29283 16.0415 6.45429 15.6533 6.45429 15.2061C6.45429 14.7449 6.29283 14.3529 5.96991 14.0301C5.64711 13.7072 5.25511 13.5457 4.7939 13.5457C4.34667 13.5457 3.95848 13.7072 3.62933 14.0301C3.30019 14.3529 3.13562 14.7449 3.13562 15.2061C3.13562 15.6533 3.30019 16.0415 3.62933 16.3707C3.95848 16.6998 4.34667 16.8644 4.7939 16.8644ZM4.7939 6.46152C5.25511 6.46152 5.64711 6.2986 5.96991 5.97276C6.29283 5.64692 6.45429 5.25524 6.45429 4.79771C6.45429 4.34019 6.29283 3.94997 5.96991 3.62705C5.64711 3.30425 5.25511 3.14286 4.7939 3.14286C4.34667 3.14286 3.95848 3.30425 3.62933 3.62705C3.30019 3.94997 3.13562 4.34019 3.13562 4.79771C3.13562 5.25524 3.30019 5.64692 3.62933 5.97276C3.95848 6.2986 4.34667 6.46152 4.7939 6.46152ZM15.2015 18C14.4269 18 13.7669 17.7272 13.2213 17.1817C12.6757 16.6362 12.4029 15.9779 12.4029 15.2069C12.4029 14.4358 12.6757 13.7757 13.2213 13.2265C13.7669 12.6774 14.4269 12.4029 15.2015 12.4029C15.9761 12.4029 16.6362 12.6774 17.1817 13.2265C17.7272 13.7757 18 14.4358 18 15.2069C18 15.9779 17.7272 16.6362 17.1817 17.1817C16.6362 17.7272 15.9761 18 15.2015 18ZM15.2023 16.8644C15.6598 16.8644 16.05 16.6998 16.373 16.3707C16.6957 16.0415 16.8571 15.6533 16.8571 15.2061C16.8571 14.7449 16.6957 14.3529 16.373 14.0301C16.05 13.7072 15.6598 13.5457 15.2023 13.5457C14.7448 13.5457 14.3531 13.7072 14.0272 14.0301C13.7014 14.3529 13.5385 14.7449 13.5385 15.2061C13.5385 15.6533 13.7014 16.0415 14.0272 16.3707C14.3531 16.6998 14.7448 16.8644 15.2023 16.8644ZM15.2023 6.46152C15.6598 6.46152 16.05 6.2986 16.373 5.97276C16.6957 5.64692 16.8571 5.25524 16.8571 4.79771C16.8571 4.34019 16.6957 3.94997 16.373 3.62705C16.05 3.30425 15.6598 3.14286 15.2023 3.14286C14.7448 3.14286 14.3531 3.30425 14.0272 3.62705C13.7014 3.94997 13.5385 4.34019 13.5385 4.79771C13.5385 5.25524 13.7014 5.64692 14.0272 5.97276C14.3531 6.2986 14.7448 6.46152 15.2023 6.46152Z" fill="white"/>
</svg>
