<svg width="25" height="25" viewBox="0 0 25 25" fill="none" xmlns="http://www.w3.org/2000/svg">
<path d="M12.1738 18.6328L16.1738 14.6328L14.7738 13.2328L13.1738 14.8328V10.6328H11.1738V14.8328L9.57383 13.2328L8.17383 14.6328L12.1738 18.6328ZM5.17383 8.63281V19.6328H19.1738V8.63281H5.17383ZM5.17383 21.6328C4.62383 21.6328 4.15299 21.437 3.76133 21.0453C3.36966 20.6536 3.17383 20.1828 3.17383 19.6328V7.15781C3.17383 6.92448 3.21133 6.69948 3.28633 6.48281C3.36133 6.26615 3.47383 6.06615 3.62383 5.88281L4.87383 4.35781C5.05716 4.12448 5.28633 3.94531 5.56133 3.82031C5.83633 3.69531 6.12383 3.63281 6.42383 3.63281H17.9238C18.2238 3.63281 18.5113 3.69531 18.7863 3.82031C19.0613 3.94531 19.2905 4.12448 19.4738 4.35781L20.7238 5.88281C20.8738 6.06615 20.9863 6.26615 21.0613 6.48281C21.1363 6.69948 21.1738 6.92448 21.1738 7.15781V19.6328C21.1738 20.1828 20.978 20.6536 20.5863 21.0453C20.1947 21.437 19.7238 21.6328 19.1738 21.6328H5.17383ZM5.57383 6.63281H18.7738L17.9238 5.63281H6.42383L5.57383 6.63281Z" fill="#1F1F1F" fill-opacity="0.59"/>
</svg>
