<svg width="19" height="19" viewBox="0 0 19 19" fill="none" xmlns="http://www.w3.org/2000/svg">
<mask id="mask0_668_18867" style="mask-type:alpha" maskUnits="userSpaceOnUse" x="0" y="0" width="19" height="19">
<rect x="0.173828" y="0.632812" width="18" height="18" fill="#D9D9D9"/>
</mask>
<g mask="url(#mask0_668_18867)">
<path d="M8.71225 15.2578C8.52375 15.2578 8.36607 15.1943 8.23919 15.0673C8.11219 14.9404 8.04869 14.7828 8.04869 14.5942V10.2531L3.85019 4.91944C3.70594 4.72706 3.685 4.52706 3.78738 4.31944C3.88988 4.11169 4.06275 4.00781 4.306 4.00781H14.0414C14.2846 4.00781 14.4575 4.11169 14.56 4.31944C14.6624 4.52706 14.6414 4.72706 14.4972 4.91944L10.2987 10.2531V14.5942C10.2987 14.7828 10.2352 14.9404 10.1082 15.0673C9.98132 15.1943 9.82363 15.2578 9.63513 15.2578H8.71225ZM9.17369 9.85781L12.8862 5.13281H5.46119L9.17369 9.85781Z" fill="#6B778C"/>
</g>
</svg>
