<svg width="21" height="21" viewBox="0 0 21 21" fill="none" xmlns="http://www.w3.org/2000/svg">
<path d="M2.67383 5.26562C2.67383 4.9341 2.80552 4.61616 3.03994 4.38174C3.27437 4.14732 3.59231 4.01563 3.92383 4.01562H7.67383C8.00535 4.01563 8.32329 4.14732 8.55771 4.38174C8.79213 4.61616 8.92383 4.9341 8.92383 5.26562V6.51562C8.92383 6.84715 8.79213 7.16509 8.55771 7.39951C8.32329 7.63393 8.00535 7.76562 7.67383 7.76562H3.92383C3.59231 7.76562 3.27437 7.63393 3.03994 7.39951C2.80552 7.16509 2.67383 6.84715 2.67383 6.51562V5.26562ZM7.67383 5.26562H3.92383V6.51562H7.67383V5.26562ZM11.4238 5.26562C11.4238 4.9341 11.5555 4.61616 11.7899 4.38174C12.0244 4.14732 12.3423 4.01563 12.6738 4.01562H16.4238C16.7553 4.01563 17.0733 4.14732 17.3077 4.38174C17.5421 4.61616 17.6738 4.9341 17.6738 5.26562V6.51562C17.6738 6.84715 17.5421 7.16509 17.3077 7.39951C17.0733 7.63393 16.7553 7.76562 16.4238 7.76562H12.6738C12.3423 7.76562 12.0244 7.63393 11.7899 7.39951C11.5555 7.16509 11.4238 6.84715 11.4238 6.51562V5.26562ZM16.4238 5.26562H12.6738V6.51562H16.4238V5.26562ZM3.92383 9.01562C3.59231 9.01562 3.27437 9.14732 3.03994 9.38174C2.80552 9.61616 2.67383 9.9341 2.67383 10.2656V11.5156C2.67383 11.8471 2.80552 12.1651 3.03994 12.3995C3.27437 12.6339 3.59231 12.7656 3.92383 12.7656H7.67383C8.00535 12.7656 8.32329 12.6339 8.55771 12.3995C8.79213 12.1651 8.92383 11.8471 8.92383 11.5156V10.2656C8.92383 9.9341 8.79213 9.61616 8.55771 9.38174C8.32329 9.14732 8.00535 9.01562 7.67383 9.01562H3.92383ZM3.92383 10.2656H7.67383V11.5156H3.92383V10.2656ZM11.4238 10.2656C11.4238 9.9341 11.5555 9.61616 11.7899 9.38174C12.0244 9.14732 12.3423 9.01562 12.6738 9.01562H16.4238C16.7553 9.01562 17.0733 9.14732 17.3077 9.38174C17.5421 9.61616 17.6738 9.9341 17.6738 10.2656V11.5156C17.6738 11.8471 17.5421 12.1651 17.3077 12.3995C17.0733 12.6339 16.7553 12.7656 16.4238 12.7656H12.6738C12.3423 12.7656 12.0244 12.6339 11.7899 12.3995C11.5555 12.1651 11.4238 11.8471 11.4238 11.5156V10.2656ZM16.4238 10.2656H12.6738V11.5156H16.4238V10.2656ZM3.92383 14.0156C3.59231 14.0156 3.27437 14.1473 3.03994 14.3817C2.80552 14.6162 2.67383 14.9341 2.67383 15.2656V16.5156C2.67383 16.8471 2.80552 17.1651 3.03994 17.3995C3.27437 17.6339 3.59231 17.7656 3.92383 17.7656H7.67383C8.00535 17.7656 8.32329 17.6339 8.55771 17.3995C8.79213 17.1651 8.92383 16.8471 8.92383 16.5156V15.2656C8.92383 14.9341 8.79213 14.6162 8.55771 14.3817C8.32329 14.1473 8.00535 14.0156 7.67383 14.0156H3.92383ZM3.92383 15.2656H7.67383V16.5156H3.92383V15.2656Z" fill="#1273D4"/>
</svg>
