<svg width="16" height="17" viewBox="0 0 16 17" fill="none" xmlns="http://www.w3.org/2000/svg">
<g clip-path="url(#clip0_668_19384)">
<path fill-rule="evenodd" clip-rule="evenodd" d="M13.1583 7.70873C13.4527 7.64543 13.5621 7.6863 13.586 7.6978C13.5959 7.71833 13.6182 7.78567 13.6027 7.94453C13.5803 8.17517 13.4834 8.50153 13.2857 8.91003C12.8933 9.72103 12.1695 10.721 11.1953 11.6953C10.221 12.6695 9.22107 13.3933 8.41003 13.7857C8.00153 13.9834 7.67517 14.0802 7.44453 14.1027C7.2857 14.1182 7.21837 14.0958 7.1978 14.086C7.1863 14.0621 7.14543 13.9527 7.20873 13.6583C7.2854 13.3018 7.48963 12.8219 7.8346 12.2606C8.2525 11.5806 8.8499 10.8248 9.58737 10.0873C10.3248 9.3499 11.0806 8.75247 11.7606 8.33457C12.3219 7.98963 12.8018 7.7854 13.1583 7.70873ZM1.47063 10.2468L6.25323 15.0294C6.6271 15.4032 7.13423 15.4726 7.5739 15.4298C8.0195 15.3863 8.50493 15.221 8.99077 14.986C9.9684 14.5129 11.0873 13.6889 12.1381 12.6381C13.1889 11.5873 14.0129 10.4684 14.486 9.49077C14.721 9.00493 14.8863 8.5195 14.9298 8.0739C14.9726 7.63423 14.9032 7.1271 14.5294 6.75323L9.74677 1.97062C9.28423 1.50809 8.6255 1.50858 8.09537 1.62259C7.53603 1.74288 6.91113 2.02806 6.27987 2.416C5.49927 2.89572 4.6627 3.56118 3.86193 4.36193C3.06118 5.16267 2.39572 5.99927 1.91601 6.77987C1.52807 7.41113 1.24288 8.03603 1.12259 8.59537C1.00858 9.1255 1.0081 9.78423 1.47063 10.2468Z" fill="#0D141C"/>
</g>
<defs>
<clipPath id="clip0_668_19384">
<rect width="16" height="16" fill="white" transform="translate(0 0.5)"/>
</clipPath>
</defs>
</svg>
