<svg width="20" height="20" viewBox="0 0 20 20" fill="none" xmlns="http://www.w3.org/2000/svg">
<path d="M10.0013 18.3307C14.6037 18.3307 18.3346 14.5998 18.3346 9.9974C18.3346 5.39502 14.6037 1.66406 10.0013 1.66406C5.39893 1.66406 1.66797 5.39502 1.66797 9.9974C1.66797 14.5998 5.39893 18.3307 10.0013 18.3307Z" stroke="white" stroke-width="1.25" stroke-linecap="round" stroke-linejoin="round"/>
<path d="M7.57422 7.49852C7.77014 6.94158 8.15685 6.47194 8.66585 6.1728C9.17485 5.87365 9.7733 5.7643 10.3552 5.86411C10.9371 5.96393 11.4649 6.26646 11.8451 6.71813C12.2253 7.1698 12.4334 7.74146 12.4326 8.33185C12.4326 9.99852 9.93255 10.8319 9.93255 10.8319" stroke="white" stroke-width="1.25" stroke-linecap="round" stroke-linejoin="round"/>
<path d="M10 14.1641H10.0083" stroke="white" stroke-width="1.25" stroke-linecap="round" stroke-linejoin="round"/>
</svg>
