<svg width="16" height="16" viewBox="0 0 16 16" fill="none" xmlns="http://www.w3.org/2000/svg">
<g clip-path="url(#clip0_668_18955)">
<path d="M6.67383 13.9258C5.80924 13.9258 4.99674 13.7617 4.23633 13.4336C3.47591 13.1055 2.81445 12.6602 2.25195 12.0977C1.68945 11.5352 1.24414 10.8737 0.916016 10.1133C0.587891 9.35286 0.423828 8.54036 0.423828 7.67578C0.423828 6.8112 0.587891 5.9987 0.916016 5.23828C1.24414 4.47786 1.68945 3.81641 2.25195 3.25391C2.81445 2.69141 3.47591 2.24609 4.23633 1.91797C4.99674 1.58984 5.80924 1.42578 6.67383 1.42578C7.53841 1.42578 8.35091 1.58984 9.11133 1.91797C9.87175 2.24609 10.5332 2.69141 11.0957 3.25391C11.6582 3.81641 12.1035 4.47786 12.4316 5.23828C12.7598 5.9987 12.9238 6.8112 12.9238 7.67578C12.9238 8.54036 12.7598 9.35286 12.4316 10.1133C12.1035 10.8737 11.6582 11.5352 11.0957 12.0977C10.5332 12.6602 9.87175 13.1055 9.11133 13.4336C8.35091 13.7617 7.53841 13.9258 6.67383 13.9258ZM6.67383 11.1133C7.14258 10.6445 7.55924 10.1602 7.92383 9.66016C8.23633 9.23307 8.52279 8.76432 8.7832 8.25391C9.04362 7.74349 9.17383 7.23828 9.17383 6.73828C9.17383 6.05078 8.92904 5.46224 8.43945 4.97266C7.94987 4.48307 7.36133 4.23828 6.67383 4.23828C5.98633 4.23828 5.39779 4.48307 4.9082 4.97266C4.41862 5.46224 4.17383 6.05078 4.17383 6.73828C4.17383 7.23828 4.30404 7.74349 4.56445 8.25391C4.82487 8.76432 5.11133 9.23307 5.42383 9.66016C5.78841 10.1602 6.20508 10.6445 6.67383 11.1133ZM6.67383 7.67578C6.41341 7.67578 6.19206 7.58464 6.00977 7.40234C5.82747 7.22005 5.73633 6.9987 5.73633 6.73828C5.73633 6.47786 5.82747 6.25651 6.00977 6.07422C6.19206 5.89193 6.41341 5.80078 6.67383 5.80078C6.93424 5.80078 7.1556 5.89193 7.33789 6.07422C7.52018 6.25651 7.61133 6.47786 7.61133 6.73828C7.61133 6.9987 7.52018 7.22005 7.33789 7.40234C7.1556 7.58464 6.93424 7.67578 6.67383 7.67578Z" fill="#5F6370"/>
</g>
<defs>
<clipPath id="clip0_668_18955">
<rect width="15" height="15" fill="white" transform="translate(0.173828 0.632812)"/>
</clipPath>
</defs>
</svg>
