<svg width="20" height="20" viewBox="0 0 20 20" fill="none" xmlns="http://www.w3.org/2000/svg">
<path d="M8.58268 16.6667H3.33268C2.89065 16.6667 2.46673 16.4912 2.15417 16.1786C1.84161 15.866 1.66602 15.4421 1.66602 15.0001V4.16675C1.66602 3.72472 1.84161 3.3008 2.15417 2.98824C2.46673 2.67567 2.89065 2.50008 3.33268 2.50008H6.64935C6.92809 2.49735 7.20306 2.56457 7.4491 2.6956C7.69514 2.82662 7.90438 3.01727 8.05768 3.25008L8.60768 4.25008C8.75944 4.48052 8.96604 4.66968 9.20893 4.80058C9.45183 4.93148 9.72343 5.00003 9.99935 5.00008H16.666C17.108 5.00008 17.532 5.17567 17.8445 5.48824C18.1571 5.8008 18.3327 6.22472 18.3327 6.66675V9.41675" stroke="#030204" stroke-width="1.25" stroke-linecap="round" stroke-linejoin="round"/>
<path d="M11.9199 16.2754L12.6891 15.957" stroke="#030204" stroke-width="1.25" stroke-linecap="round" stroke-linejoin="round"/>
<path d="M12.6891 14.0418L11.9199 13.7227" stroke="#030204" stroke-width="1.25" stroke-linecap="round" stroke-linejoin="round"/>
<path d="M14.0438 12.691L13.7246 11.9219" stroke="#030204" stroke-width="1.25" stroke-linecap="round" stroke-linejoin="round"/>
<path d="M14.0438 17.3086L13.7246 18.0786" stroke="#030204" stroke-width="1.25" stroke-linecap="round" stroke-linejoin="round"/>
<path d="M15.957 12.691L16.2762 11.9219" stroke="#030204" stroke-width="1.25" stroke-linecap="round" stroke-linejoin="round"/>
<path d="M16.2754 18.0786L15.957 17.3086" stroke="#030204" stroke-width="1.25" stroke-linecap="round" stroke-linejoin="round"/>
<path d="M17.3105 14.0418L18.0805 13.7227" stroke="#030204" stroke-width="1.25" stroke-linecap="round" stroke-linejoin="round"/>
<path d="M17.3105 15.957L18.0805 16.2762" stroke="#030204" stroke-width="1.25" stroke-linecap="round" stroke-linejoin="round"/>
<path d="M15 17.5C16.3807 17.5 17.5 16.3807 17.5 15C17.5 13.6193 16.3807 12.5 15 12.5C13.6193 12.5 12.5 13.6193 12.5 15C12.5 16.3807 13.6193 17.5 15 17.5Z" stroke="#030204" stroke-width="1.25" stroke-linecap="round" stroke-linejoin="round"/>
</svg>
