<svg width="20" height="20" viewBox="0 0 20 20" fill="none" xmlns="http://www.w3.org/2000/svg">
<path d="M9.16667 12.5013H10.8333C11.2754 12.5013 11.6993 12.3257 12.0118 12.0131C12.3244 11.7006 12.5 11.2767 12.5 10.8346C12.5 10.3926 12.3244 9.96869 12.0118 9.65612C11.6993 9.34356 11.2754 9.16797 10.8333 9.16797H8.33333C7.83333 9.16797 7.41667 9.33464 7.16667 9.66797L2.5 14.168" stroke="white" stroke-width="1.25" stroke-linecap="round" stroke-linejoin="round"/>
<path d="M5.83398 17.4992L7.16732 16.3326C7.41732 15.9993 7.83398 15.8326 8.33398 15.8326H11.6673C12.584 15.8326 13.4173 15.4992 14.0006 14.8326L17.834 11.1659C18.1556 10.862 18.3432 10.4428 18.3557 10.0006C18.3682 9.55828 18.2045 9.12916 17.9006 8.80758C17.5968 8.48601 17.1776 8.29833 16.7353 8.28582C16.293 8.27332 15.8639 8.43702 15.5423 8.74092L12.0423 11.9909" stroke="white" stroke-width="1.25" stroke-linecap="round" stroke-linejoin="round"/>
<path d="M1.66602 13.332L6.66602 18.332" stroke="white" stroke-width="1.25" stroke-linecap="round" stroke-linejoin="round"/>
<path d="M13.3327 9.91536C14.6674 9.91536 15.7493 8.83339 15.7493 7.4987C15.7493 6.16401 14.6674 5.08203 13.3327 5.08203C11.998 5.08203 10.916 6.16401 10.916 7.4987C10.916 8.83339 11.998 9.91536 13.3327 9.91536Z" stroke="white" stroke-width="1.25" stroke-linecap="round" stroke-linejoin="round"/>
<path d="M5 6.66797C6.38071 6.66797 7.5 5.54868 7.5 4.16797C7.5 2.78726 6.38071 1.66797 5 1.66797C3.61929 1.66797 2.5 2.78726 2.5 4.16797C2.5 5.54868 3.61929 6.66797 5 6.66797Z" stroke="white" stroke-width="1.25" stroke-linecap="round" stroke-linejoin="round"/>
</svg>
