<svg width="13" height="13" viewBox="0 0 13 13" fill="none" xmlns="http://www.w3.org/2000/svg">
<path d="M6.17383 0.132812C2.86183 0.132812 0.173828 2.82081 0.173828 6.13281C0.173828 9.44481 2.86183 12.1328 6.17383 12.1328C9.48583 12.1328 12.1738 9.44481 12.1738 6.13281C12.1738 2.82081 9.48583 0.132812 6.17383 0.132812ZM6.17383 1.93281C7.16983 1.93281 7.97383 2.73681 7.97383 3.73281C7.97383 4.72881 7.16983 5.53281 6.17383 5.53281C5.17783 5.53281 4.37383 4.72881 4.37383 3.73281C4.37383 2.73681 5.17783 1.93281 6.17383 1.93281ZM6.17383 10.4528C4.67383 10.4528 3.34783 9.68481 2.57383 8.52081C2.59183 7.32681 4.97383 6.67281 6.17383 6.67281C7.36783 6.67281 9.75583 7.32681 9.77383 8.52081C8.99983 9.68481 7.67383 10.4528 6.17383 10.4528Z" fill="#5F6370"/>
</svg>
