<svg width="110" height="115" viewBox="0 0 110 115" fill="none" xmlns="http://www.w3.org/2000/svg">
<rect width="110" height="114.218" fill="white"/>
<path d="M91.6719 24.4838H18.3308V89.7531L0 73.4358V8.15084H64.1668V0L91.6719 24.4838Z" fill="black"/>
<path d="M91.6719 24.4838H18.3308V89.7531L0 73.4358V8.15084H64.1668V0L91.6719 24.4838Z" fill="black" fill-opacity="0.2"/>
<path d="M18.3281 89.7342H91.6692V24.4648L110 40.7822V106.067H45.8332V114.218L18.3281 89.7342Z" fill="black"/>
<path d="M18.3281 89.7342H91.6692V24.4648L110 40.7822V106.067H45.8332V114.218L18.3281 89.7342Z" fill="black" fill-opacity="0.2"/>
<path d="M87.0919 71.2413C62.6624 71.2413 56.6693 61.3695 52.6446 51.2475C50.3071 45.3807 49.7447 43.9884 41.5547 43.9884V28.3438C62.1527 28.3438 66.5641 39.4045 69.2003 46.0065C71.7487 52.3895 73.0317 55.5967 87.0919 55.5967V71.2413Z" fill="black"/>
<path d="M87.0919 71.2413C62.6624 71.2413 56.6693 61.3695 52.6446 51.2475C50.3071 45.3807 49.7447 43.9884 41.5547 43.9884V28.3438C62.1527 28.3438 66.5641 39.4045 69.2003 46.0065C71.7487 52.3895 73.0317 55.5967 87.0919 55.5967V71.2413Z" fill="black" fill-opacity="0.2"/>
</svg>
