<svg width="90" height="22" viewBox="0 0 90 22" fill="none" xmlns="http://www.w3.org/2000/svg">
<path d="M15.0173 4.99601H3.00289V17.0076L0 14.0047V1.99024H10.5116V0.490234L15.0173 4.99601Z" fill="white"/>
<path d="M3.00195 17.0042H15.0164V4.99268L18.0193 7.99557V20.01H7.50773V21.51L3.00195 17.0042Z" fill="white"/>
<path d="M14.2664 13.6015C10.2644 13.6015 9.28266 11.7848 8.62334 9.92202C8.24043 8.84236 8.1483 8.58612 6.80664 8.58612V5.70703C10.1809 5.70703 10.9036 7.74255 11.3354 8.95752C11.7529 10.1322 11.9631 10.7224 14.2664 10.7224V13.6015Z" fill="white"/>
<path d="M59.2524 4.08691V12.514L62.0192 16.6916V4.08691H59.2524ZM59.2524 13.5706L58.6334 12.6349L54.9453 7.05238L52.9875 4.08691H50.2207V4.25966L52.9875 8.43722L56.0163 13.0121L59.2524 17.9008H62.0192V17.7482L59.2524 13.5706ZM50.2207 5.31053V17.9008H52.9875V9.49096L50.2207 5.31053Z" fill="white"/>
<path d="M85.5496 11.9701C81.5476 11.9701 80.5659 10.1534 79.9065 8.29067C79.5236 7.21101 79.4315 6.95477 78.0898 6.95477V4.07568C81.4641 4.07568 82.1868 6.1112 82.6186 7.32617C83.0361 8.50084 83.2463 9.09106 85.5496 9.09106V11.9701Z" fill="white"/>
<path d="M28.172 4.09863V7.11304L34.7372 7.11307V4.09866L28.172 4.09863ZM25.5098 4.09866V17.901H28.4839V7.11307H28.4896V4.09866H25.5098Z" fill="white"/>
<path d="M78.0861 10.9937C78.0861 14.9064 74.9162 18.0763 71.0064 18.0763C67.0966 18.0763 63.9238 14.9064 63.9238 10.9937C63.9238 7.08106 67.0937 3.91406 71.0064 3.91406C74.0035 3.91406 76.5659 5.77683 77.5966 8.40832H74.6398C73.8538 7.18471 72.5208 6.38144 71.015 6.38144C68.5966 6.38144 66.6359 8.44575 66.6359 10.9937C66.6359 13.5417 68.5966 15.6089 71.015 15.6089C72.9527 15.6089 74.5937 14.2845 75.1724 12.4477H69.826V10.1099H78.0314C78.0688 10.4006 78.0889 10.6943 78.0889 10.9966L78.0861 10.9937Z" fill="white"/>
<path d="M48.9259 10.9966C48.9259 7.08394 45.756 3.91406 41.8462 3.91406C37.9335 3.91406 34.7637 7.08394 34.7637 10.9966C34.7637 14.9064 37.9335 18.0763 41.8462 18.0763C44.8434 18.0763 47.4058 16.2135 48.4365 13.582H45.4796C44.6936 14.8057 43.3606 15.6089 41.8549 15.6089C39.4364 15.6089 37.4758 13.5446 37.4758 10.9966C37.4758 8.44863 39.4364 6.38144 41.8549 6.38144C43.7925 6.38144 45.4336 7.70582 46.0123 9.54268H40.6658V11.8805H48.8712C48.9086 11.5897 48.9288 11.296 48.9288 10.9937L48.9259 10.9966Z" fill="white"/>
<path d="M89.1147 4.07812V17.8834H79.916V14.8142H86.0485V4.07812H89.1147Z" fill="white"/>
</svg>
