<svg width="20" height="20" viewBox="0 0 20 20" fill="none" xmlns="http://www.w3.org/2000/svg">
<path d="M12.4993 1.66406H7.49935C7.03911 1.66406 6.66602 2.03716 6.66602 2.4974V4.16406C6.66602 4.6243 7.03911 4.9974 7.49935 4.9974H12.4993C12.9596 4.9974 13.3327 4.6243 13.3327 4.16406V2.4974C13.3327 2.03716 12.9596 1.66406 12.4993 1.66406Z" stroke="white" stroke-width="1.25" stroke-linecap="round" stroke-linejoin="round"/>
<path d="M13.334 3.33594H15.0007C15.4427 3.33594 15.8666 3.51153 16.1792 3.82409C16.4917 4.13665 16.6673 4.56058 16.6673 5.0026V16.6693C16.6673 17.1113 16.4917 17.5352 16.1792 17.8478C15.8666 18.1603 15.4427 18.3359 15.0007 18.3359H5.00065C4.55862 18.3359 4.1347 18.1603 3.82214 17.8478C3.50958 17.5352 3.33398 17.1113 3.33398 16.6693V5.0026C3.33398 4.56058 3.50958 4.13665 3.82214 3.82409C4.1347 3.51153 4.55862 3.33594 5.00065 3.33594H6.66732" stroke="white" stroke-width="1.25" stroke-linecap="round" stroke-linejoin="round"/>
<path d="M7.5 11.6641H12.5" stroke="white" stroke-width="1.25" stroke-linecap="round" stroke-linejoin="round"/>
</svg>
